<svg width="20" xmlns="http://www.w3.org/2000/svg" viewBox="0 0 185.72 127.89"><defs><style>.a{fill:#FFFFFF;}.b{fill: #FFFFFF;}</style></defs><title>Asset 1</title><path class="a" d="M99.26,74.52a37.27,37.27,0,0,1-33.6,53.37h-23c3.31-11.67-1.88-19.27-3.39-21.15H63.77a16.11,16.11,0,0,0,0-32.22H37.26A37.26,37.26,0,1,1,37.26,0h70.8L97,21.15H38.39a16.11,16.11,0,0,0,0,32.22H65.66A37.26,37.26,0,0,1,99.26,74.52Z"/><path class="b" d="M110.12,106.74H150.5l-.3-.6-.19-.36-.08-.16h0L119.33,47.22,107.75,69.14h0A47.14,47.14,0,0,0,92.24,51.6L119.36,0l66.36,127.89h-91a44.92,44.92,0,0,0,4.35-3.84A47.08,47.08,0,0,0,110.12,106.74Z"/><path class="b" d="M30.1,127.89H0l11.15-21.15H26.71C28.22,108.62,33.41,116.22,30.1,127.89Z"/></svg>