<svg xmlns="http://www.w3.org/2000/svg" viewBox="0 0 185.84 128.12"><defs><style>.cls-1{fill:#fafafa;}.cls-2{fill:#ddd;}</style></defs><title>Asset 1</title><g id="Layer_2" data-name="Layer 2"><g id="Layer_1-2" data-name="Layer 1"><path class="cls-1" d="M99.26,74.52a37.26,37.26,0,0,0-33.6-21.15H38.39a16.11,16.11,0,0,1,0-32.22H91.71L102.68,0H37.26a37.26,37.26,0,1,0,0,74.52H63.77a16.11,16.11,0,0,1,0,32.22H35.52c2.55,2.47,7.14,8.94,3.14,21.15h27a37.26,37.26,0,0,0,33.6-53.37Z"/><path class="cls-2" d="M119.36,0l66.48,128.12H113.46l10.46-19.94.72-1.56,25.56-.48L119.33,47.22,107,70.5S100,58.56,91.7,52.62Z"/><path class="cls-2" d="M11.2,106.28H26.32s7.62,8.06,3.78,21.61H0S8,114.38,11.2,106.28Z"/></g></g></svg>